<?xml version="1.0" standalone="no"?><!DOCTYPE svg PUBLIC "-//W3C//DTD SVG 1.1//EN" "http://www.w3.org/Graphics/SVG/1.1/DTD/svg11.dtd"><svg class="icon" width="200px" height="200.00px" viewBox="0 0 1024 1024" version="1.1" xmlns="http://www.w3.org/2000/svg"><path d="M342.5 569.49s-31 103.64-31 165.54c0 0-1.93 68.52 62.34 85.18 0 0 128.1 33.84 235.22 17.18 0 0 88.62-5.69 95.94-70.46 0 0 8.81-58.09-12.62-179.49 0 0-158.87-102.96-349.88-17.95z" fill="#F7F3E7" /><path d="M440 665.67a21.85 24.51 0 1 0 43.7 0 21.85 24.51 0 1 0-43.7 0Z"  /><path d="M551.91 665.67a21.85 24.51 0 1 0 43.7 0 21.85 24.51 0 1 0-43.7 0Z"  /><path d="M518.33 783.15c-23.97 0-45.86-12.16-58.56-32.53-3.65-5.86-1.87-13.57 3.99-17.22 5.86-3.65 13.57-1.87 17.22 3.99 8.11 13 22.07 20.76 37.35 20.76s29.24-7.76 37.35-20.76c3.65-5.86 11.36-7.65 17.22-3.99 5.86 3.65 7.65 11.36 3.99 17.22-12.7 20.37-34.6 32.53-58.56 32.53z"  /><path d="M331.74 245.84S227 326.78 205.57 417.23c0 0-17.68 71.82 26.19 99.98 0 0 196.41 126.45 548.46 37.65 0 0 69.99-15.67 49.04-94.78 0 0-53.73-215.07-316.48-262.49 0 0-104.47-17.76-181.05 48.24z" fill="#82594D" /><path d="M538.02 598.98c-58.14 0-114.2-5.86-166.74-17.44-94.22-20.76-144.21-52.48-146.29-53.82-50.5-32.42-32.57-109.32-31.57-113.42 21.88-92.24 123.11-172.47 130.41-178.15 33.21-28.53 76.72-46.38 125.83-51.62 36.98-3.95 64.09 0.54 65.23 0.74l0.13 0.02c61.54 11.11 116.99 32.23 164.81 62.79 38.36 24.51 71.87 55.09 99.62 90.88 46.86 60.44 61.09 114.67 61.93 118 7.53 28.52 5.22 53.08-6.88 73-17.2 28.31-48.1 36.29-51.31 37.05-81.23 20.48-160.99 31.22-237.06 31.93-2.7 0.03-5.4 0.04-8.09 0.04zM339.38 255.73c-1.23 0.95-101.53 79.46-121.65 164.38l-0.03 0.11c-0.15 0.61-14.94 63.53 20.8 86.47 16.66 10.66 67.28 34.99 139.55 50.74 53.05 11.57 109.86 17.12 168.85 16.5 73.81-0.78 151.28-11.27 230.25-31.19l0.33-0.08c0.18-0.04 23.66-5.75 35.76-25.9 8.33-13.88 9.65-31.87 3.93-53.49l-0.04-0.17c-4.55-18-22.57-64.11-58.16-109.74-26.01-33.33-57.38-61.81-93.26-84.63-44.88-28.56-97.05-48.35-155.06-58.83-1.14-0.18-26.01-4.07-59.09-0.44-30.57 3.36-74.76 14.03-111.66 45.83l-0.52 0.42z m-7.64-9.89h0.01-0.01z"  /><path d="M543.81 854.54c-87.7 0-168.91-21.12-173.16-22.25-30.26-7.84-52.31-27.34-63.71-56.35-8-20.36-7.97-38.69-7.93-41.04 0.04-63.01 30.24-164.69 31.52-168.99 1.98-6.61 8.94-10.37 15.56-8.39 6.61 1.98 10.37 8.94 8.39 15.56-0.3 1.02-30.48 102.63-30.48 161.96v0.35c-0.05 2.35-0.62 58.83 52.98 72.73 1.31 0.35 126.96 32.98 230.16 16.93l0.56-0.09 0.56-0.04c0.19-0.01 20.88-1.49 41.8-10.25 25.74-10.77 40.05-27.31 42.51-49.14l0.06-0.47c2.89-19.62 4-81.57-12.57-175.45-1.2-6.8 3.34-13.28 10.14-14.48 6.8-1.2 13.28 3.34 14.48 10.14 21.04 119.21 13.42 178.32 12.71 183.28-3.6 31.18-23.77 55.2-58.34 69.46-22.79 9.4-44.57 11.5-48.57 11.81-21.88 3.37-44.48 4.72-66.67 4.72z"  /></svg>